<svg xmlns="http://www.w3.org/2000/svg" viewBox="0 0 512 512">
    <g>
        <path fill="#5b5f97" d="M346.1,205.1v101.3c0,15.3-12.5,27.8-27.8,27.8h-84.9v-127.3L346.1,205.1z"/>
        <path fill="#ffffff" d="M228.2,344.2h84.9c15.3,0,27.8-12.5,27.8-27.8V215.7l-84.9,128.5V344.2z"/>
        <path fill="#c8c8c8" d="M352.9,110.8c0-17.5-14.2-31.7-31.7-31.7h-189c-17.5,0-31.7,14.2-31.7,31.7v30.2
      c0,17.5,14.2,31.7,31.7,31.7h189c17.5,0,31.7-14.2,31.7-31.7V110.8z"/>
        <path fill="#5b5f97" d="M352.9,113.7c0-17.5-14.2-31.7-31.7-31.7h-189c-17.5,0-31.7,14.2-31.7,31.7v27.3
      c0,17.5,14.2,31.7,31.7,31.7h189c17.5,0,31.7-14.2,31.7-31.7V113.7z"/>
        <rect x="188.8" y="191.2" fill="#ffcc80" width="143.8" height="15.9"/>
        <rect x="188.8" y="235.5" fill="#ffcc80" width="143.8" height="15.9"/>
        <rect x="188.8" y="279.8" fill="#ffcc80" width="143.8" height="15.9"/>
        <path fill="#c8c8c8" d="M255.9,47.8l-86.9,63.2h173.8L255.9,47.8z"/>
        <rect x="169" y="110.8" fill="#5b5f97" width="174" height="3.2"/>
        <circle fill="#e6e6e6" cx="256" cy="149.5" r="31.7"/>
    </g>
</svg>
